<svg xmlns="http://www.w3.org/2000/svg" width="24" height="24"><path d="M10.883 15.77c-.07.19-.086.378-.13.558-.183.735-.323 1.48-.503 2.215a15.524 15.524 0 01-.477 1.664c-.168.48-.398.941-.628 1.398a14.08 14.08 0 01-1.266 2.036c-.078.105-.121.293-.285.25-.196-.051-.164-.25-.184-.41a18.636 18.636 0 01-.14-3.06c.02-.53.039-1.077.168-1.597.136-.527.234-1.066.363-1.597.09-.375.172-.758.23-1.145.051-.36.192-.707.246-1.062.075-.485.211-.954.309-1.43.09-.434.203-.863.293-1.293a13.6 13.6 0 01.2-.879c.038-.14.01-.29-.06-.445-.187-.41-.23-.868-.296-1.309a4.487 4.487 0 01.097-1.691c.211-.848.551-1.625 1.332-2.133.868-.559 2.09-.305 2.477.715.242.656.191 1.3.098 1.968-.079.575-.254 1.13-.415 1.68-.124.43-.261.856-.367 1.285-.086.352-.246.7-.226 1.075.008.207-.04.406-.024.624.051.836.532 1.368 1.235 1.688.39.176.847.188 1.304.07a3.32 3.32 0 001.258-.644c.426-.336.719-.785 1-1.239.29-.46.48-.984.645-1.503.21-.684.355-1.391.457-2.11.074-.562.074-1.12.086-1.676a5.565 5.565 0 00-.73-2.87c-.305-.548-.759-.981-1.278-1.36-.438-.313-.926-.477-1.399-.68-.16-.07-.343-.078-.511-.12-.551-.138-1.125-.126-1.688-.102a5.893 5.893 0 00-2.004.437c-.68.281-1.289.68-1.816 1.192a6.207 6.207 0 00-1.316 1.8 5.934 5.934 0 00-.543 1.684c-.11.715-.192 1.437-.06 2.18.087.472.235.918.43 1.347.087.203.227.387.38.551.171.191.199.402.152.629-.078.39-.176.785-.274 1.176-.078.3-.418.433-.71.289-.88-.453-1.508-1.145-1.903-2.051a6.737 6.737 0 01-.57-2.64c-.004-.65-.043-1.297.105-1.93a11.29 11.29 0 01.442-1.508 9.1 9.1 0 01.926-1.758c.542-.832 1.246-1.523 2.05-2.101A8.03 8.03 0 019.355.87 10.2 10.2 0 0110.73.496c.84-.168 1.676-.23 2.52-.2.457.013.902.126 1.352.192.609.094 1.164.325 1.714.563.372.16.723.37 1.059.597.535.364 1.016.79 1.441 1.266a7.773 7.773 0 011.223 1.89c.16.333.266.684.418 1.024.066.145.082.32.105.484.043.274.079.555.133.817.117.555.075 1.101.055 1.644a7.03 7.03 0 01-.156 1.395c-.055.215-.04.434-.094.66-.094.36-.18.727-.277 1.086a8.69 8.69 0 01-.63 1.613c-.554 1.118-1.284 2.09-2.327 2.809a5.997 5.997 0 01-1.172.64c-.922.352-1.883.508-2.852.317-.894-.18-1.664-.613-2.219-1.379-.03-.062-.082-.094-.14-.144zm0 0" fill="#a7a7a7"/></svg>