<?xml version="1.0" encoding="UTF-8"?>
<svg xmlns="http://www.w3.org/2000/svg" xmlns:xlink="http://www.w3.org/1999/xlink" width="24px" height="24px" viewBox="0 0 24 24" version="1.1">
<g id="surface1">
<path style=" stroke:none;fill-rule:nonzero;fill:rgb(65.490196%,65.490196%,65.490196%);fill-opacity:1;" d="M 10.882812 15.769531 C 10.8125 15.960938 10.796875 16.148438 10.753906 16.328125 C 10.570312 17.0625 10.429688 17.808594 10.25 18.542969 C 10.117188 19.101562 9.96875 19.664062 9.773438 20.207031 C 9.605469 20.6875 9.375 21.148438 9.144531 21.605469 C 8.789062 22.320312 8.351562 22.996094 7.878906 23.640625 C 7.800781 23.746094 7.757812 23.933594 7.59375 23.890625 C 7.398438 23.839844 7.429688 23.640625 7.410156 23.480469 C 7.273438 22.460938 7.238281 21.445312 7.269531 20.421875 C 7.289062 19.890625 7.308594 19.34375 7.4375 18.824219 C 7.574219 18.296875 7.671875 17.757812 7.800781 17.226562 C 7.890625 16.851562 7.972656 16.46875 8.03125 16.082031 C 8.082031 15.722656 8.222656 15.375 8.277344 15.019531 C 8.351562 14.535156 8.488281 14.066406 8.585938 13.589844 C 8.675781 13.15625 8.789062 12.726562 8.878906 12.296875 C 8.9375 12 9 11.710938 9.078125 11.417969 C 9.117188 11.277344 9.089844 11.128906 9.019531 10.972656 C 8.832031 10.5625 8.789062 10.105469 8.722656 9.664062 C 8.640625 9.097656 8.6875 8.527344 8.820312 7.972656 C 9.03125 7.125 9.371094 6.347656 10.152344 5.839844 C 11.019531 5.28125 12.242188 5.535156 12.628906 6.554688 C 12.871094 7.210938 12.820312 7.855469 12.726562 8.523438 C 12.648438 9.097656 12.472656 9.652344 12.3125 10.203125 C 12.1875 10.632812 12.050781 11.058594 11.945312 11.488281 C 11.859375 11.839844 11.699219 12.1875 11.71875 12.5625 C 11.726562 12.769531 11.679688 12.96875 11.695312 13.1875 C 11.746094 14.023438 12.226562 14.554688 12.929688 14.875 C 13.320312 15.050781 13.777344 15.0625 14.234375 14.945312 C 14.71875 14.820312 15.117188 14.597656 15.492188 14.300781 C 15.917969 13.964844 16.210938 13.515625 16.492188 13.0625 C 16.78125 12.601562 16.972656 12.078125 17.136719 11.558594 C 17.347656 10.875 17.492188 10.167969 17.59375 9.449219 C 17.667969 8.886719 17.667969 8.328125 17.679688 7.773438 C 17.703125 6.746094 17.441406 5.785156 16.949219 4.902344 C 16.644531 4.355469 16.191406 3.921875 15.671875 3.542969 C 15.234375 3.230469 14.746094 3.066406 14.273438 2.863281 C 14.113281 2.792969 13.929688 2.785156 13.761719 2.742188 C 13.210938 2.605469 12.636719 2.617188 12.074219 2.640625 C 11.382812 2.667969 10.710938 2.816406 10.070312 3.078125 C 9.390625 3.359375 8.78125 3.757812 8.253906 4.269531 C 7.707031 4.78125 7.273438 5.390625 6.9375 6.070312 C 6.675781 6.605469 6.484375 7.175781 6.394531 7.753906 C 6.285156 8.46875 6.203125 9.191406 6.335938 9.933594 C 6.421875 10.40625 6.570312 10.851562 6.765625 11.28125 C 6.851562 11.484375 6.992188 11.667969 7.144531 11.832031 C 7.316406 12.023438 7.34375 12.234375 7.296875 12.460938 C 7.21875 12.851562 7.121094 13.246094 7.023438 13.636719 C 6.945312 13.9375 6.605469 14.070312 6.3125 13.925781 C 5.433594 13.472656 4.804688 12.78125 4.410156 11.875 C 4.050781 11.035156 3.84375 10.15625 3.839844 9.234375 C 3.835938 8.585938 3.796875 7.9375 3.945312 7.304688 C 4.0625 6.792969 4.199219 6.289062 4.386719 5.796875 C 4.625 5.171875 4.945312 4.597656 5.3125 4.039062 C 5.855469 3.207031 6.558594 2.515625 7.363281 1.9375 C 7.976562 1.492188 8.648438 1.125 9.355469 0.871094 C 9.800781 0.710938 10.261719 0.59375 10.730469 0.496094 C 11.570312 0.328125 12.40625 0.265625 13.25 0.296875 C 13.707031 0.308594 14.152344 0.421875 14.601562 0.488281 C 15.210938 0.582031 15.765625 0.8125 16.316406 1.050781 C 16.6875 1.210938 17.039062 1.421875 17.375 1.648438 C 17.910156 2.011719 18.390625 2.4375 18.816406 2.914062 C 19.320312 3.476562 19.714844 4.117188 20.039062 4.804688 C 20.199219 5.136719 20.304688 5.488281 20.457031 5.828125 C 20.523438 5.972656 20.539062 6.148438 20.5625 6.3125 C 20.605469 6.585938 20.640625 6.867188 20.695312 7.128906 C 20.8125 7.683594 20.769531 8.230469 20.75 8.773438 C 20.738281 9.238281 20.699219 9.707031 20.59375 10.167969 C 20.539062 10.382812 20.554688 10.601562 20.5 10.828125 C 20.40625 11.1875 20.320312 11.554688 20.222656 11.914062 C 20.070312 12.476562 19.851562 13.011719 19.59375 13.527344 C 19.039062 14.644531 18.308594 15.617188 17.265625 16.335938 C 16.894531 16.589844 16.507812 16.8125 16.09375 16.976562 C 15.171875 17.328125 14.210938 17.484375 13.242188 17.292969 C 12.347656 17.113281 11.578125 16.679688 11.023438 15.914062 C 10.992188 15.851562 10.941406 15.820312 10.882812 15.769531 Z M 10.882812 15.769531 "/>
</g>
</svg>
